<svg width="53" height="55" viewBox="0 0 53 55" fill="none" xmlns="http://www.w3.org/2000/svg">
<g clip-path="url(#clip0_16_2135)">
<path fill-rule="evenodd" clip-rule="evenodd" d="M12.3774 9.60615C12.3774 5.69364 15.441 2.52187 19.2201 2.52187C22.9988 2.52187 26.0624 5.69364 26.0624 9.60615V14.0899H27.6833V18.4804C27.6833 18.944 27.3206 19.3195 26.8729 19.3195C26.4251 19.3195 26.0624 18.944 26.0624 18.4804V14.0899L12.3774 14.0899V9.60615ZM27.6833 14.0894V9.60615C27.6833 4.76655 23.8943 0.84375 19.2201 0.84375C14.5455 0.84375 10.7564 4.76655 10.7564 9.60615V14.0899H12.3774L12.3773 18.4804C12.3773 18.944 12.0146 19.3195 11.5669 19.3195C11.1191 19.3195 10.7564 18.944 10.7564 18.4804V14.0899H7.88591C7.14601 14.0866 6.51465 14.6433 6.39977 15.4L2.08472 47.4496C2.11638 49.6114 3.81689 51.3476 5.90545 51.3499H20.7782L24.3596 24.7486L24.3614 24.7345C24.5663 23.3448 25.7237 22.3203 27.0814 22.3264H32.973L32.04 15.4C31.9256 14.6428 31.2942 14.0861 30.5538 14.0894H27.6833ZM47.2099 24.9883C47.123 24.4199 46.6486 24.0022 46.0928 24.0046H27.0814C26.5255 24.0022 26.0511 24.4199 25.9643 24.9883L22.3462 51.857C22.3769 53.5918 23.7432 54.9825 25.4193 54.9843H47.753C49.43 54.9829 50.7968 53.5923 50.828 51.857L47.2099 24.9883ZM43.8161 31.8141C43.8161 35.9476 40.5797 39.2983 36.5871 39.2983C32.594 39.2983 29.3576 35.9476 29.3576 31.8141V27.9672C29.3576 27.5036 29.7203 27.1281 30.1681 27.1281C30.6158 27.1281 30.9785 27.5036 30.9785 27.9672V31.8141C30.9785 35.0206 33.4895 37.6201 36.5871 37.6201C39.6842 37.6201 42.1952 35.0206 42.1952 31.8141V27.9672C42.1952 27.5036 42.5579 27.1281 43.0056 27.1281C43.4534 27.1281 43.8161 27.5036 43.8161 27.9672V31.8141Z" fill="url(#paint0_linear_16_2135)"/>
</g>
<defs>
<linearGradient id="paint0_linear_16_2135" x1="26.4563" y1="0.84375" x2="26.4559" y2="54.9843" gradientUnits="userSpaceOnUse">
<stop stop-color="#FD6700"/>
<stop offset="1" stop-color="#FFCE00"/>
</linearGradient>
<clipPath id="clip0_16_2135">
<rect width="52.2949" height="54.1406" fill="white" transform="translate(0.269531 0.84375)"/>
</clipPath>
</defs>
</svg>
